<svg xmlns="http://www.w3.org/2000/svg" xmlns:xlink="http://www.w3.org/1999/xlink" width="500" zoomAndPan="magnify" viewBox="0 0 375 374.999991" height="500" preserveAspectRatio="xMidYMid meet" version="1.0"><defs><g/><clipPath id="9faccf8a52"><path d="M 37.5 202 L 101 202 L 101 224.351562 L 37.5 224.351562 Z M 37.5 202 " clip-rule="nonzero"/></clipPath><clipPath id="4ae4fd70f9"><path d="M 37.5 145.175781 L 101.640625 145.175781 L 101.640625 202 L 37.5 202 Z M 37.5 145.175781 " clip-rule="nonzero"/></clipPath></defs><path fill="#231f20" d="M 64.945312 201.996094 C 63.59375 201.089844 62.121094 200.40625 60.644531 199.722656 C 56.707031 197.960938 52.402344 196.660156 48.054688 196.976562 C 47.5625 196.992188 47.179688 197.214844 46.863281 197.535156 C 46.242188 198.152344 46.039062 199.089844 46.277344 199.929688 C 46.371094 200.230469 46.511719 200.503906 46.769531 200.722656 C 47.371094 201.152344 48.132812 201.105469 48.832031 201.027344 C 54.039062 200.46875 59.246094 201.566406 64.214844 203.089844 C 64.292969 203.121094 64.390625 203.136719 64.46875 203.136719 C 64.515625 203.136719 64.5625 203.136719 64.613281 203.136719 C 64.882812 203.105469 65.152344 202.898438 65.214844 202.628906 C 65.230469 202.550781 65.230469 202.46875 65.214844 202.390625 C 65.183594 202.214844 65.070312 202.074219 64.945312 201.996094 Z M 64.945312 201.996094 " fill-opacity="1" fill-rule="nonzero"/><path fill="#231f20" d="M 56.992188 206.914062 C 54.164062 206.550781 51.769531 208.933594 52.132812 211.773438 C 52.371094 213.695312 53.925781 215.25 55.863281 215.488281 C 58.691406 215.835938 61.054688 213.472656 60.707031 210.648438 C 60.46875 208.726562 58.914062 207.167969 56.992188 206.914062 Z M 56.421875 211.105469 C 56.164062 211.089844 55.960938 210.902344 55.894531 210.664062 C 55.878906 210.582031 55.863281 210.503906 55.863281 210.425781 C 55.722656 210.566406 55.546875 210.679688 55.339844 210.742188 C 54.609375 210.980469 53.832031 210.582031 53.59375 209.851562 C 53.355469 209.121094 53.753906 208.34375 54.484375 208.105469 C 55.214844 207.867188 55.992188 208.265625 56.230469 208.996094 C 56.324219 209.296875 56.308594 209.613281 56.214844 209.882812 C 56.246094 209.867188 56.277344 209.851562 56.308594 209.835938 C 56.640625 209.726562 57.023438 209.917969 57.132812 210.25 C 57.277344 210.679688 56.945312 211.15625 56.421875 211.105469 Z M 56.421875 211.105469 " fill-opacity="1" fill-rule="nonzero"/><path fill="#231f20" d="M 82.949219 206.914062 C 80.121094 206.566406 77.757812 208.933594 78.105469 211.757812 C 78.34375 213.679688 79.898438 215.234375 81.820312 215.488281 C 84.648438 215.855469 87.042969 213.472656 86.679688 210.628906 C 86.441406 208.710938 84.882812 207.152344 82.949219 206.914062 Z M 85.21875 209.835938 C 84.980469 210.566406 84.203125 210.964844 83.472656 210.726562 C 83.265625 210.664062 83.089844 210.550781 82.949219 210.410156 C 82.949219 210.488281 82.949219 210.566406 82.917969 210.648438 C 82.851562 210.882812 82.628906 211.074219 82.390625 211.089844 C 81.882812 211.136719 81.550781 210.664062 81.679688 210.234375 C 81.789062 209.898438 82.152344 209.710938 82.503906 209.820312 C 82.535156 209.835938 82.566406 209.851562 82.597656 209.867188 C 82.503906 209.582031 82.488281 209.28125 82.582031 208.980469 C 82.820312 208.25 83.597656 207.851562 84.328125 208.089844 C 85.058594 208.328125 85.457031 209.121094 85.21875 209.835938 Z M 85.21875 209.835938 " fill-opacity="1" fill-rule="nonzero"/><g clip-path="url(#9faccf8a52)"><path fill="#231f20" d="M 97.03125 203.167969 C 92.042969 202.929688 87.011719 202.804688 82.027344 203.074219 C 80.933594 203.105469 79.851562 203.234375 78.789062 203.503906 C 76.4375 203.929688 74.214844 204.835938 71.882812 205.359375 C 71.074219 205.566406 70.246094 205.644531 69.4375 205.613281 C 69.421875 205.613281 69.40625 205.613281 69.40625 205.613281 C 69.390625 205.613281 69.375 205.613281 69.375 205.613281 C 68.566406 205.644531 67.738281 205.582031 66.929688 205.359375 C 64.613281 204.851562 62.375 203.945312 60.023438 203.503906 C 58.976562 203.234375 57.878906 203.089844 56.785156 203.074219 C 51.800781 202.804688 46.769531 202.929688 41.78125 203.167969 C 40.449219 203.296875 38.609375 203.089844 37.925781 204.550781 C 37.765625 205.949219 37.8125 207.375 37.941406 208.789062 C 38.355469 208.949219 38.910156 208.964844 39.117188 209.425781 C 39.8125 210.726562 39.988281 212.25 40.242188 213.695312 C 40.496094 216.109375 40.957031 218.617188 42.433594 220.617188 C 44.003906 222.933594 46.769531 224.15625 49.480469 224.425781 C 50.292969 224.503906 51.101562 224.539062 51.925781 224.523438 C 51.925781 224.523438 52.085938 224.523438 52.386719 224.503906 C 52.46875 224.503906 52.546875 224.503906 52.625 224.488281 C 55.832031 224.332031 59.152344 223.394531 61.816406 221.617188 C 63.214844 220.679688 64.390625 219.550781 65.214844 218.09375 C 66.039062 216.664062 66.597656 215.109375 67.136719 213.566406 C 67.214844 213.34375 67.328125 213.125 67.46875 212.933594 C 67.5 212.886719 67.53125 212.851562 67.546875 212.804688 C 67.851562 212.375 68.261719 212.042969 68.738281 211.835938 C 69.136719 211.664062 69.582031 211.664062 69.976562 211.835938 C 70.453125 212.042969 70.882812 212.375 71.167969 212.804688 C 71.199219 212.851562 71.230469 212.886719 71.246094 212.933594 C 71.390625 213.140625 71.5 213.34375 71.582031 213.566406 C 72.136719 215.109375 72.691406 216.664062 73.5 218.09375 C 74.34375 219.550781 75.519531 220.679688 76.898438 221.617188 C 79.566406 223.394531 82.882812 224.332031 86.089844 224.488281 C 86.171875 224.488281 86.25 224.488281 86.328125 224.503906 C 86.613281 224.523438 86.789062 224.523438 86.789062 224.523438 C 87.613281 224.539062 88.425781 224.503906 89.234375 224.425781 C 91.949219 224.15625 94.710938 222.933594 96.285156 220.617188 C 97.757812 218.617188 98.21875 216.109375 98.472656 213.695312 C 98.726562 212.25 98.902344 210.742188 99.601562 209.425781 C 99.808594 208.964844 100.363281 208.933594 100.777344 208.789062 C 100.902344 207.375 100.964844 205.949219 100.792969 204.550781 C 100.1875 203.105469 98.363281 203.296875 97.03125 203.167969 Z M 64.882812 211.375 C 64.882812 211.550781 64.867188 211.726562 64.832031 211.902344 C 64.832031 211.980469 64.816406 212.074219 64.800781 212.15625 C 64.785156 212.234375 64.769531 212.3125 64.769531 212.394531 C 64.769531 212.394531 64.769531 212.410156 64.769531 212.410156 C 64.597656 213.34375 64.277344 214.265625 63.832031 215.125 C 62.914062 216.949219 61.46875 218.550781 59.785156 219.726562 C 59.785156 219.726562 59.785156 219.726562 59.769531 219.726562 C 59.339844 220.027344 58.898438 220.316406 58.4375 220.554688 C 56.292969 221.695312 53.832031 222.234375 51.402344 222.125 C 49.339844 222.027344 46.496094 221.441406 45.117188 219.710938 C 43.210938 217.3125 43.324219 214.089844 43.339844 211.136719 C 43.339844 210.597656 43.402344 210.074219 43.527344 209.550781 C 43.527344 209.550781 43.527344 209.535156 43.527344 209.519531 C 43.863281 208.121094 44.832031 206.933594 46.132812 206.375 C 46.210938 206.34375 46.308594 206.296875 46.402344 206.265625 C 46.546875 206.21875 46.703125 206.152344 46.863281 206.121094 C 47.132812 206.042969 47.417969 205.964844 47.6875 205.898438 C 47.734375 205.882812 47.769531 205.882812 47.816406 205.867188 C 47.957031 205.835938 48.117188 205.804688 48.261719 205.773438 C 48.847656 205.597656 49.449219 205.488281 50.054688 205.421875 C 50.070312 205.421875 50.070312 205.421875 50.085938 205.421875 C 50.277344 205.40625 50.449219 205.390625 50.640625 205.375 C 50.785156 205.359375 50.925781 205.359375 51.070312 205.34375 C 51.070312 205.34375 51.085938 205.34375 51.085938 205.34375 C 51.417969 205.3125 51.769531 205.296875 52.101562 205.296875 C 52.277344 205.28125 52.449219 205.28125 52.609375 205.28125 C 53.402344 205.265625 54.214844 205.28125 55.007812 205.328125 C 56.261719 205.390625 57.515625 205.519531 58.738281 205.773438 C 60.261719 206.089844 61.929688 206.628906 63.183594 207.613281 C 63.421875 207.804688 63.660156 208.011719 63.867188 208.25 C 63.914062 208.296875 63.945312 208.34375 63.992188 208.390625 C 64.085938 208.503906 64.152344 208.613281 64.230469 208.726562 C 64.246094 208.757812 64.277344 208.789062 64.292969 208.835938 C 64.34375 208.917969 64.390625 209.011719 64.4375 209.089844 C 64.453125 209.121094 64.46875 209.171875 64.484375 209.203125 C 64.515625 209.296875 64.5625 209.375 64.597656 209.472656 C 64.613281 209.503906 64.628906 209.550781 64.628906 209.582031 C 64.660156 209.695312 64.691406 209.820312 64.722656 209.933594 C 64.707031 209.835938 64.675781 209.757812 64.660156 209.664062 C 64.660156 209.679688 64.675781 209.695312 64.675781 209.710938 C 64.691406 209.773438 64.707031 209.851562 64.722656 209.917969 C 64.722656 209.949219 64.738281 209.980469 64.738281 210.027344 C 64.867188 210.488281 64.898438 210.933594 64.882812 211.375 Z M 93.695312 219.710938 C 92.332031 221.441406 89.472656 222.027344 87.410156 222.125 C 84.996094 222.234375 82.519531 221.695312 80.375 220.554688 C 79.914062 220.316406 79.472656 220.027344 79.042969 219.726562 C 79.042969 219.726562 79.027344 219.726562 79.027344 219.726562 C 77.34375 218.550781 75.898438 216.949219 74.976562 215.125 C 74.550781 214.265625 74.230469 213.359375 74.042969 212.410156 C 74.042969 212.410156 74.042969 212.394531 74.042969 212.394531 C 74.027344 212.3125 74.011719 212.234375 74.011719 212.15625 C 73.992188 212.074219 73.976562 211.980469 73.976562 211.902344 C 73.960938 211.726562 73.945312 211.550781 73.929688 211.375 C 73.914062 210.933594 73.929688 210.488281 74.027344 210.058594 C 74.027344 210.027344 74.042969 209.980469 74.042969 209.949219 C 74.058594 209.882812 74.074219 209.804688 74.089844 209.742188 C 74.089844 209.726562 74.105469 209.710938 74.105469 209.695312 C 74.089844 209.789062 74.058594 209.867188 74.042969 209.964844 C 74.074219 209.835938 74.105469 209.726562 74.136719 209.613281 C 74.152344 209.582031 74.167969 209.535156 74.167969 209.503906 C 74.199219 209.410156 74.230469 209.3125 74.28125 209.234375 C 74.296875 209.203125 74.3125 209.152344 74.328125 209.121094 C 74.375 209.027344 74.421875 208.949219 74.46875 208.867188 C 74.484375 208.835938 74.503906 208.789062 74.535156 208.757812 C 74.613281 208.644531 74.691406 208.519531 74.773438 208.425781 C 74.820312 208.375 74.851562 208.328125 74.898438 208.28125 C 75.105469 208.058594 75.34375 207.835938 75.582031 207.644531 C 76.835938 206.644531 78.503906 206.121094 80.027344 205.804688 C 81.25 205.550781 82.503906 205.421875 83.757812 205.359375 C 84.550781 205.3125 85.359375 205.296875 86.15625 205.3125 C 86.328125 205.3125 86.503906 205.3125 86.664062 205.328125 C 86.996094 205.328125 87.34375 205.359375 87.679688 205.375 C 87.679688 205.375 87.695312 205.375 87.695312 205.375 C 87.835938 205.390625 87.980469 205.390625 88.125 205.40625 C 88.3125 205.421875 88.488281 205.4375 88.679688 205.457031 C 88.695312 205.457031 88.695312 205.457031 88.710938 205.457031 C 89.3125 205.519531 89.917969 205.644531 90.503906 205.804688 C 90.648438 205.835938 90.804688 205.867188 90.949219 205.898438 C 90.996094 205.898438 91.027344 205.914062 91.074219 205.929688 C 91.363281 205.996094 91.632812 206.074219 91.902344 206.152344 C 92.058594 206.203125 92.203125 206.25 92.363281 206.296875 C 92.457031 206.328125 92.535156 206.359375 92.632812 206.40625 C 93.933594 206.980469 94.902344 208.152344 95.234375 209.550781 C 95.234375 209.566406 95.234375 209.566406 95.234375 209.582031 C 95.363281 210.105469 95.425781 210.628906 95.425781 211.171875 C 95.488281 214.089844 95.601562 217.3125 93.695312 219.710938 Z M 93.695312 219.710938 " fill-opacity="1" fill-rule="nonzero"/></g><path fill="#231f20" d="M 86.964844 190.453125 C 80.613281 192.46875 75.566406 197.199219 71.4375 202.25 C 70.789062 202.804688 71.675781 203.996094 72.34375 203.375 C 73.121094 202.644531 74.089844 202.058594 74.960938 201.453125 C 75.867188 200.820312 76.789062 200.199219 77.726562 199.613281 C 79.21875 198.691406 80.789062 197.820312 82.390625 197.074219 C 84.027344 196.3125 85.726562 195.53125 87.488281 195.183594 C 88.472656 194.992188 89.648438 194.722656 90.125 193.722656 C 90.964844 191.867188 88.871094 189.675781 86.964844 190.453125 Z M 86.964844 190.453125 " fill-opacity="1" fill-rule="nonzero"/><g clip-path="url(#4ae4fd70f9)"><path fill="#231f20" d="M 39.386719 201.773438 C 40.164062 201.835938 40.957031 201.804688 41.75 201.804688 C 41.71875 200.28125 41.75 198.738281 41.832031 197.214844 C 41.988281 193.753906 42.164062 190.214844 43.308594 186.929688 C 44.273438 184.5625 46.308594 182.085938 49.117188 182.230469 C 54.117188 182.546875 57.800781 186.660156 62.691406 187.375 C 65.5 187.867188 68.390625 187.023438 70.722656 185.46875 C 72.375 184.453125 73.613281 182.878906 75.40625 182.070312 C 76.25 181.671875 77.136719 181.386719 78.042969 181.183594 C 82.773438 180.117188 88.140625 181.800781 90.996094 185.800781 C 94.1875 190.40625 94.695312 196.214844 94.648438 201.660156 L 94.648438 201.835938 L 97.601562 201.835938 C 99.015625 199.027344 99.472656 195.867188 99.808594 192.769531 C 99.933594 190.546875 100.109375 188.214844 99.332031 186.085938 C 99.269531 185.914062 99.125 185.53125 99.0625 185.355469 C 99.933594 185.960938 100.617188 186.753906 101.269531 187.578125 C 101.21875 185.722656 100.902344 183.878906 100.441406 182.070312 L 100.0625 180.816406 L 100.03125 180.707031 C 99.347656 178.46875 98.203125 176.230469 96.140625 174.992188 C 96.964844 174.800781 97.726562 175.292969 98.457031 175.609375 C 98.25 175.226562 98.046875 174.847656 97.824219 174.480469 C 96.15625 172.132812 94.125 170.054688 92.21875 167.894531 C 89.757812 165.003906 86.394531 162.117188 86.425781 157.972656 C 85.679688 158.035156 85.058594 158.433594 84.535156 158.957031 C 81.359375 151.972656 74.453125 146.984375 66.960938 145.621094 C 66.960938 145.621094 66.945312 145.621094 66.929688 145.621094 C 66.675781 145.558594 66.4375 145.527344 66.199219 145.476562 C 65.4375 145.335938 64.832031 145.253906 64.421875 145.222656 C 64.390625 145.222656 64.375 145.222656 64.359375 145.222656 C 64.199219 145.191406 64.023438 145.175781 63.867188 145.175781 C 64.4375 146.429688 64.929688 147.746094 65.089844 149.128906 C 63.816406 149.160156 62.53125 148.84375 61.660156 147.890625 C 61.421875 148.90625 61.183594 149.9375 61.101562 150.988281 C 61.070312 151.78125 61.183594 152.589844 61.4375 153.351562 C 60.101562 153.082031 59.914062 151.257812 59.878906 150.75 C 59.878906 150.699219 59.878906 150.652344 59.878906 150.605469 C 59.878906 150.605469 58.484375 151.050781 57.355469 154.144531 C 55.671875 154.621094 54.339844 155.828125 53.308594 157.195312 C 52.371094 158.464844 51.703125 160.003906 51.179688 161.496094 C 50.625 163.082031 50.246094 164.734375 49.386719 166.179688 C 49.023438 166.78125 48.339844 167.640625 47.546875 167.195312 C 47.132812 166.304688 47.988281 165.558594 48.402344 164.863281 C 46.925781 165.195312 45.765625 166.179688 44.703125 167.226562 C 40.019531 171.371094 38.066406 178.054688 37.65625 184.132812 C 37.511719 186.136719 37.542969 188.152344 37.6875 190.152344 C 37.75 190.898438 37.828125 191.644531 37.910156 192.390625 C 38.273438 195.53125 38.734375 198.675781 39.386719 201.773438 Z M 39.386719 201.773438 " fill-opacity="1" fill-rule="nonzero"/></g><g fill="#211d1d" fill-opacity="1"><g transform="translate(111.781376, 215.951302)"><g><path d="M 7.46875 0 C 5.46875 0 4.144531 0.0390625 3.5 0.125 L 3.5 -27.171875 C 3.820312 -27.085938 4.492188 -27.046875 5.515625 -27.046875 C 6.546875 -27.046875 7.738281 -27.078125 9.09375 -27.140625 L 9.09375 -4.875 L 13.296875 -4.875 C 14.523438 -4.875 15.503906 -4.914062 16.234375 -5 C 16.140625 -1.832031 16.09375 -0.1875 16.09375 -0.0625 L 16.09375 0.140625 C 14.757812 0.046875 12.523438 0 9.390625 0 Z M 7.46875 0 "/></g></g></g><g fill="#211d1d" fill-opacity="1"><g transform="translate(129.171012, 215.951302)"><g><path d="M 17.109375 -4.875 C 17.941406 -4.875 18.523438 -4.957031 18.859375 -5.125 L 18.9375 -5.109375 L 18.734375 0 L 3.5 0 L 3.5 -27.1875 C 3.863281 -27.164062 4.269531 -27.148438 4.71875 -27.140625 L 6.140625 -27.09375 C 7.085938 -27.0625 8.117188 -27.046875 9.234375 -27.046875 C 12.335938 -27.046875 15.410156 -27.101562 18.453125 -27.21875 C 18.296875 -26.019531 18.21875 -24.425781 18.21875 -22.4375 C 18.21875 -22.21875 18.234375 -22.054688 18.265625 -21.953125 L 18.21875 -21.890625 C 17.519531 -22.085938 16.519531 -22.1875 15.21875 -22.1875 L 8.8125 -22.1875 L 8.8125 -17 L 13.625 -17 C 15.113281 -17 16.007812 -17.039062 16.3125 -17.125 L 16.375 -12.109375 C 15.71875 -12.171875 14.875 -12.203125 13.84375 -12.203125 L 8.8125 -12.203125 L 8.8125 -4.875 Z M 17.109375 -4.875 "/></g></g></g><g fill="#211d1d" fill-opacity="1"><g transform="translate(150.038575, 215.951302)"><g><path d="M 20.59375 -1.984375 C 19.59375 -1.191406 18.300781 -0.578125 16.71875 -0.140625 C 15.132812 0.296875 13.1875 0.515625 10.875 0.515625 C 8.5625 0.515625 6.101562 0.300781 3.5 -0.125 L 3.5 -26.9375 C 6.125 -27.351562 8.398438 -27.5625 10.328125 -27.5625 C 12.265625 -27.5625 13.851562 -27.378906 15.09375 -27.015625 C 16.34375 -26.648438 17.359375 -26.15625 18.140625 -25.53125 C 19.691406 -24.320312 20.46875 -22.753906 20.46875 -20.828125 C 20.46875 -18.910156 19.765625 -17.320312 18.359375 -16.0625 C 20.015625 -15.550781 21.300781 -14.578125 22.21875 -13.140625 C 23.039062 -11.847656 23.453125 -10.421875 23.453125 -8.859375 C 23.453125 -7.296875 23.222656 -5.957031 22.765625 -4.84375 C 22.316406 -3.726562 21.59375 -2.773438 20.59375 -1.984375 Z M 8.890625 -16.828125 C 9.460938 -16.722656 10.175781 -16.671875 11.03125 -16.671875 C 11.882812 -16.671875 12.582031 -16.78125 13.125 -17 C 13.675781 -17.226562 14.101562 -17.515625 14.40625 -17.859375 C 14.894531 -18.410156 15.140625 -19.179688 15.140625 -20.171875 C 15.140625 -22.253906 13.914062 -23.296875 11.46875 -23.296875 C 10.4375 -23.296875 9.578125 -23.253906 8.890625 -23.171875 Z M 11.90625 -12.46875 C 10.757812 -12.46875 9.753906 -12.394531 8.890625 -12.25 L 8.890625 -4.25 C 9.835938 -4.007812 10.832031 -3.890625 11.875 -3.890625 C 12.914062 -3.890625 13.832031 -4.015625 14.625 -4.265625 C 15.425781 -4.515625 16.097656 -4.851562 16.640625 -5.28125 C 17.734375 -6.175781 18.28125 -7.316406 18.28125 -8.703125 C 18.28125 -11.210938 16.15625 -12.46875 11.90625 -12.46875 Z M 11.90625 -12.46875 "/></g></g></g><g fill="#211d1d" fill-opacity="1"><g transform="translate(174.384066, 215.951302)"><g><path d="M 5.703125 -3.203125 C 4.472656 -4.390625 3.503906 -5.8125 2.796875 -7.46875 C 2.085938 -9.125 1.734375 -10.9375 1.734375 -12.90625 C 1.734375 -14.875 2.0625 -16.738281 2.71875 -18.5 C 3.382812 -20.269531 4.332031 -21.828125 5.5625 -23.171875 C 6.800781 -24.515625 8.296875 -25.582031 10.046875 -26.375 C 11.796875 -27.164062 13.753906 -27.5625 15.921875 -27.5625 C 19.671875 -27.5625 22.828125 -26.378906 25.390625 -24.015625 C 28.128906 -21.492188 29.5 -18.09375 29.5 -13.8125 C 29.5 -9.664062 28.085938 -6.210938 25.265625 -3.453125 C 23.523438 -1.765625 21.457031 -0.597656 19.0625 0.046875 C 17.875 0.359375 16.488281 0.515625 14.90625 0.515625 C 13.332031 0.515625 11.710938 0.191406 10.046875 -0.453125 C 8.390625 -1.109375 6.941406 -2.023438 5.703125 -3.203125 Z M 7.390625 -13.1875 C 7.390625 -11.914062 7.597656 -10.75 8.015625 -9.6875 C 8.429688 -8.632812 9.015625 -7.734375 9.765625 -6.984375 C 11.347656 -5.378906 13.390625 -4.578125 15.890625 -4.578125 C 18.253906 -4.578125 20.15625 -5.34375 21.59375 -6.875 C 23.0625 -8.457031 23.796875 -10.617188 23.796875 -13.359375 C 23.796875 -15.941406 23.097656 -18.09375 21.703125 -19.8125 C 20.191406 -21.65625 18.128906 -22.578125 15.515625 -22.578125 C 12.984375 -22.578125 10.972656 -21.640625 9.484375 -19.765625 C 8.085938 -18.015625 7.390625 -15.820312 7.390625 -13.1875 Z M 7.390625 -13.1875 "/></g></g></g><g fill="#211d1d" fill-opacity="1"><g transform="translate(205.604056, 215.951302)"><g><path d="M 3.6875 0 C 3.757812 -0.457031 3.796875 -0.957031 3.796875 -1.5 L 3.796875 -27.046875 L 7.875 -27.046875 L 18.65625 -10.09375 L 18.65625 -25.671875 C 18.65625 -26.410156 18.585938 -26.867188 18.453125 -27.046875 L 23.9375 -27.046875 C 23.875 -26.503906 23.84375 -25.910156 23.84375 -25.265625 L 23.84375 0 L 19.609375 0 L 8.984375 -16.296875 L 8.984375 0 Z M 3.6875 0 "/></g></g></g><g fill="#4a87ce" fill-opacity="1"><g transform="translate(233.250665, 215.951302)"><g><path d="M 25.796875 -16.3125 C 25.535156 -15.851562 25.40625 -14.75 25.40625 -13 L 25.40625 -6.6875 C 25.40625 -4.78125 24.414062 -3.117188 22.4375 -1.703125 C 20.382812 -0.222656 17.875 0.515625 14.90625 0.515625 C 10.78125 0.515625 7.492188 -0.78125 5.046875 -3.375 C 2.671875 -5.84375 1.484375 -8.988281 1.484375 -12.8125 C 1.484375 -16.882812 2.691406 -20.273438 5.109375 -22.984375 C 7.804688 -26.035156 11.519531 -27.5625 16.25 -27.5625 C 19.40625 -27.5625 21.90625 -26.953125 23.75 -25.734375 L 23.4375 -19.734375 L 23.265625 -19.6875 C 22.796875 -20.519531 21.863281 -21.195312 20.46875 -21.71875 C 19.132812 -22.21875 17.738281 -22.46875 16.28125 -22.46875 C 14.820312 -22.46875 13.546875 -22.238281 12.453125 -21.78125 C 11.367188 -21.320312 10.445312 -20.664062 9.6875 -19.8125 C 8.082031 -18.0625 7.28125 -15.75 7.28125 -12.875 C 7.28125 -10.363281 7.984375 -8.347656 9.390625 -6.828125 C 10.804688 -5.328125 12.625 -4.578125 14.84375 -4.578125 C 17.300781 -4.578125 18.957031 -5.210938 19.8125 -6.484375 C 20.082031 -6.890625 20.21875 -7.351562 20.21875 -7.875 L 20.21875 -11.25 L 17.59375 -11.25 C 16.1875 -11.25 15.421875 -11.125 15.296875 -10.875 L 15.234375 -10.90625 L 15.046875 -16.21875 C 15.429688 -16.101562 16.972656 -16.046875 19.671875 -16.046875 L 22.0625 -16.046875 C 23.5625 -16.046875 24.785156 -16.148438 25.734375 -16.359375 Z M 25.796875 -16.3125 "/></g></g></g><g fill="#4a87ce" fill-opacity="1"><g transform="translate(260.992727, 215.951302)"><g><path d="M 17.109375 -4.875 C 17.941406 -4.875 18.523438 -4.957031 18.859375 -5.125 L 18.9375 -5.109375 L 18.734375 0 L 3.5 0 L 3.5 -27.1875 C 3.863281 -27.164062 4.269531 -27.148438 4.71875 -27.140625 L 6.140625 -27.09375 C 7.085938 -27.0625 8.117188 -27.046875 9.234375 -27.046875 C 12.335938 -27.046875 15.410156 -27.101562 18.453125 -27.21875 C 18.296875 -26.019531 18.21875 -24.425781 18.21875 -22.4375 C 18.21875 -22.21875 18.234375 -22.054688 18.265625 -21.953125 L 18.21875 -21.890625 C 17.519531 -22.085938 16.519531 -22.1875 15.21875 -22.1875 L 8.8125 -22.1875 L 8.8125 -17 L 13.625 -17 C 15.113281 -17 16.007812 -17.039062 16.3125 -17.125 L 16.375 -12.109375 C 15.71875 -12.171875 14.875 -12.203125 13.84375 -12.203125 L 8.8125 -12.203125 L 8.8125 -4.875 Z M 17.109375 -4.875 "/></g></g></g><g fill="#4a87ce" fill-opacity="1"><g transform="translate(281.86029, 215.951302)"><g><path d="M 17.109375 -4.875 C 17.941406 -4.875 18.523438 -4.957031 18.859375 -5.125 L 18.9375 -5.109375 L 18.734375 0 L 3.5 0 L 3.5 -27.1875 C 3.863281 -27.164062 4.269531 -27.148438 4.71875 -27.140625 L 6.140625 -27.09375 C 7.085938 -27.0625 8.117188 -27.046875 9.234375 -27.046875 C 12.335938 -27.046875 15.410156 -27.101562 18.453125 -27.21875 C 18.296875 -26.019531 18.21875 -24.425781 18.21875 -22.4375 C 18.21875 -22.21875 18.234375 -22.054688 18.265625 -21.953125 L 18.21875 -21.890625 C 17.519531 -22.085938 16.519531 -22.1875 15.21875 -22.1875 L 8.8125 -22.1875 L 8.8125 -17 L 13.625 -17 C 15.113281 -17 16.007812 -17.039062 16.3125 -17.125 L 16.375 -12.109375 C 15.71875 -12.171875 14.875 -12.203125 13.84375 -12.203125 L 8.8125 -12.203125 L 8.8125 -4.875 Z M 17.109375 -4.875 "/></g></g></g><g fill="#4a87ce" fill-opacity="1"><g transform="translate(302.727853, 215.951302)"><g><path d="M 8.6875 0.125 C 7.75 0.0390625 6.554688 0 5.109375 0 L 3.5 0 L 3.5 -27.140625 L 4.3125 -27.09375 C 4.882812 -27.0625 5.3125 -27.046875 5.59375 -27.046875 L 6.1875 -27.046875 C 7.375 -27.046875 8.207031 -27.101562 8.6875 -27.21875 L 8.6875 -15.71875 L 16.921875 -27.140625 C 17.785156 -27.078125 18.519531 -27.046875 19.125 -27.046875 L 20.234375 -27.046875 C 21.628906 -27.046875 22.628906 -27.101562 23.234375 -27.21875 L 15.375 -16.96875 L 23.109375 -1.625 C 23.429688 -0.882812 23.734375 -0.34375 24.015625 0 L 22.78125 0 C 19.914062 0 18.132812 0.0507812 17.4375 0.15625 C 17.28125 -0.75 17.078125 -1.539062 16.828125 -2.21875 L 11.640625 -12.109375 L 8.6875 -8.234375 Z M 8.6875 0.125 "/></g></g></g></svg>